<?xml version="1.0" encoding="utf-8"?>
<svg version="1.1" id="Layer_1" xmlns="http://www.w3.org/2000/svg" xmlns:xlink="http://www.w3.org/1999/xlink" x="0px" y="0px"
	 viewBox="0 0 1748.4 98" style="enable-background:new 0 0 1748.4 98;" xml:space="preserve">
<style type="text/css">
	.st0{enable-background:new    ;}
	.st1{fill:#FFFFFF;}
</style>
<g class="st0">
	<path class="st1" d="M45.5,57.2v22.7H33.6V18.1h21.2c3.4,0,6.4,0.5,9.1,1.5c2.7,1,5,2.3,6.9,4.1c1.9,1.7,3.4,3.8,4.4,6.3
		s1.6,5.1,1.6,8.1c0,2.8-0.5,5.3-1.6,7.7s-2.5,4.4-4.4,6.1c-1.9,1.7-4.2,3.1-6.9,4s-5.8,1.4-9.1,1.4H45.5z M45.5,47.6h9.2
		c1.7,0,3.2-0.3,4.4-0.8c1.2-0.5,2.3-1.2,3.1-2.1c0.8-0.9,1.5-1.9,1.9-3c0.4-1.1,0.6-2.3,0.6-3.6c0-1.4-0.2-2.8-0.6-4
		c-0.4-1.2-1-2.3-1.9-3.3c-0.8-0.9-1.9-1.7-3.1-2.2c-1.2-0.5-2.7-0.8-4.4-0.8h-9.2V47.6z"/>
	<path class="st1" d="M122.4,67h-18.6l-3.7,12.9H87.6l20.3-61.9h10.8l19.9,61.9H126L122.4,67z M106.8,56.9h12.8l-6.3-22.8
		L106.8,56.9z"/>
	<path class="st1" d="M198.6,27.8h-19.1v52.1h-12V27.8h-18.8v-9.7h49.9V27.8z"/>
	<path class="st1" d="M265.8,27.8h-19.1v52.1h-12V27.8h-18.8v-9.7h49.9V27.8z"/>
	<path class="st1" d="M325.6,52.8h-25.4v17.5h29.7v9.6h-41.7V18.1h41.5v9.7h-29.6v15.6h25.4V52.8z"/>
	<path class="st1" d="M373.7,56.8h-9v23.1h-11.9V18.1h20.7c3.4,0,6.5,0.4,9.3,1.2c2.8,0.8,5.1,2,7.1,3.5s3.5,3.5,4.5,5.8
		c1.1,2.3,1.6,5,1.6,8.1c0,2.2-0.3,4.2-0.8,6c-0.5,1.8-1.3,3.4-2.3,4.8c-1,1.4-2.2,2.6-3.5,3.7c-1.4,1-2.9,2-4.6,2.7l13.3,25.5v0.6
		h-12.8L373.7,56.8z M364.6,47.1h8.8c3.4,0,6-0.9,7.8-2.6c1.8-1.7,2.7-4.1,2.7-7c0-3.1-0.9-5.5-2.7-7.2s-4.4-2.6-7.9-2.6h-8.8V47.1z
		"/>
	<path class="st1" d="M458.6,79.9h-11.9L429.5,40v39.9h-12V18.1h12l17.1,39.7l0-39.7h12V79.9z"/>
	<path class="st1" d="M569.2,56.8h-9v23.1h-11.9V18.1h20.7c3.4,0,6.5,0.4,9.3,1.2c2.8,0.8,5.1,2,7.1,3.5s3.5,3.5,4.5,5.8
		c1.1,2.3,1.6,5,1.6,8.1c0,2.2-0.3,4.2-0.8,6c-0.5,1.8-1.3,3.4-2.3,4.8c-1,1.4-2.2,2.6-3.5,3.7c-1.4,1-2.9,2-4.6,2.7l13.3,25.5v0.6
		h-12.8L569.2,56.8z M560.1,47.1h8.8c3.4,0,6-0.9,7.8-2.6c1.8-1.7,2.7-4.1,2.7-7c0-3.1-0.9-5.5-2.7-7.2s-4.4-2.6-7.9-2.6h-8.8V47.1z
		"/>
	<path class="st1" d="M646.8,67h-18.6l-3.7,12.9H612l20.3-61.9h10.8L663,79.9h-12.6L646.8,67z M631.1,56.9H644l-6.3-22.8L631.1,56.9
		z"/>
	<path class="st1" d="M681.3,79.9V18.1h16c4.1,0,7.8,0.7,11.2,2.1c3.3,1.4,6.2,3.4,8.5,5.9c2.4,2.5,4.2,5.5,5.5,9
		c1.3,3.5,1.9,7.3,1.9,11.5v5.1c0,4.2-0.6,8-1.9,11.4c-1.3,3.5-3.1,6.5-5.4,9c-2.3,2.5-5.1,4.5-8.4,5.8c-3.3,1.4-6.9,2.1-10.8,2.1
		H681.3z M693.3,27.8v42.6h4.6c2.2,0,4.2-0.4,6-1.3s3.3-2.1,4.5-3.7c1.2-1.6,2.2-3.6,2.8-5.9c0.7-2.3,1-4.9,1-7.9v-5.2
		c0-2.8-0.3-5.3-1-7.6c-0.6-2.3-1.6-4.2-2.8-5.9s-2.8-2.9-4.7-3.8s-4-1.4-6.4-1.4H693.3z"/>
	<path class="st1" d="M746.3,18.1h35.8v9.6H770v42.6h12.1v9.6h-35.8v-9.6h11.8V27.7h-11.8V18.1z"/>
	<path class="st1" d="M852,53.5c0,4-0.5,7.6-1.6,11c-1,3.3-2.6,6.2-4.5,8.6c-2,2.4-4.4,4.3-7.2,5.6c-2.8,1.3-6.1,2-9.6,2
		s-6.7-0.7-9.5-2c-2.8-1.3-5.1-3.2-7-5.7c-1.9-2.4-3.3-5.3-4.3-8.6c-1-3.3-1.5-7-1.5-10.9v-9c0-4,0.5-7.6,1.5-11
		c1-3.3,2.4-6.2,4.3-8.6c1.9-2.4,4.2-4.3,7-5.7c2.8-1.4,5.9-2,9.5-2c3.6,0,6.8,0.7,9.7,2c2.8,1.4,5.3,3.2,7.2,5.7
		c2,2.4,3.5,5.3,4.5,8.6c1,3.3,1.6,7,1.6,11V53.5z M839.9,44.5c0-2.5-0.2-4.8-0.6-7c-0.4-2.1-1.1-4-1.9-5.5c-0.9-1.5-2-2.7-3.4-3.6
		c-1.4-0.9-3-1.3-5-1.3c-1.9,0-3.5,0.4-4.8,1.3c-1.3,0.9-2.4,2.1-3.1,3.6c-0.8,1.5-1.4,3.4-1.7,5.5c-0.3,2.1-0.5,4.4-0.5,7v9.1
		c0,2.5,0.2,4.8,0.5,6.9c0.3,2.1,0.9,4,1.7,5.5c0.8,1.6,1.8,2.8,3.1,3.7c1.3,0.9,2.9,1.3,4.9,1.3c1.9,0,3.6-0.4,4.9-1.3
		c1.4-0.9,2.5-2.1,3.4-3.6c0.9-1.5,1.5-3.4,1.9-5.5c0.4-2.1,0.6-4.4,0.6-7V44.5z"/>
	<path class="st1" d="M887,38c0-1.1,0.2-2.1,0.6-3.1c0.4-0.9,0.9-1.8,1.6-2.5c0.7-0.7,1.6-1.2,2.6-1.7c1-0.4,2.2-0.6,3.4-0.6
		c1.3,0,2.4,0.2,3.4,0.6c1,0.4,1.9,1,2.6,1.7c0.7,0.7,1.2,1.5,1.6,2.5c0.4,0.9,0.6,2,0.6,3.1c0,1.1-0.2,2.1-0.6,3
		c-0.4,0.9-0.9,1.7-1.6,2.4c-0.7,0.7-1.6,1.2-2.6,1.6s-2.2,0.6-3.4,0.6c-1.3,0-2.4-0.2-3.4-0.6s-1.9-0.9-2.6-1.6
		c-0.7-0.7-1.2-1.5-1.6-2.4C887.2,40.1,887,39.1,887,38z M887,73.1c0-1.1,0.2-2.1,0.6-3.1c0.4-0.9,0.9-1.8,1.6-2.5
		c0.7-0.7,1.6-1.2,2.6-1.7s2.2-0.6,3.4-0.6c1.3,0,2.4,0.2,3.4,0.6s1.9,1,2.6,1.7c0.7,0.7,1.2,1.5,1.6,2.5c0.4,0.9,0.6,2,0.6,3.1
		c0,1.1-0.2,2.1-0.6,3c-0.4,0.9-0.9,1.7-1.6,2.4c-0.7,0.7-1.6,1.2-2.6,1.6s-2.2,0.6-3.4,0.6c-1.3,0-2.4-0.2-3.4-0.6
		s-1.9-0.9-2.6-1.6c-0.7-0.7-1.2-1.5-1.6-2.4C887.2,75.2,887,74.2,887,73.1z"/>
</g>
<g class="st0">
</g>
<g class="st0">
	<path class="st1" d="M1033.1,65.9l0.3,4.3l0.5-4.3l9-47.8h4.4l9,47.8l0.5,4.5l0.4-4.5l6.3-47.8h4.8l-8.7,61.9h-5.1l-9.4-51.6
		l-9.5,51.6h-5.1l-8.7-61.9h4.8L1033.1,65.9z"/>
	<path class="st1" d="M1128.9,79.9h-4.8V50.3h-29.1v29.7h-4.8V18.1h4.8v27.8h29.1V18.1h4.8V79.9z"/>
	<path class="st1" d="M1187.1,62.7h-23.5l-5.5,17.2h-5.1l20.1-61.9h4.6l20,61.9h-5.1L1187.1,62.7z M1165,58.1h20.6l-10.3-32.5
		L1165,58.1z"/>
	<path class="st1" d="M1228.3,75.5h31.5v4.4h-36.6V18.1h5.1V75.5z"/>
	<path class="st1" d="M1319.9,50.3h-27.3v25.2h31.4v4.4h-36.5V18.1h36.3v4.5h-31.3v23.3h27.3V50.3z"/>
	<path class="st1" d="M1451.4,64.7c0-1.4-0.2-2.7-0.7-3.9c-0.4-1.1-1-2.2-1.8-3.1s-1.7-1.7-2.7-2.4s-2.1-1.3-3.3-1.8
		c-1.2-0.5-2.4-1-3.6-1.4c-1.2-0.4-2.4-0.8-3.5-1.2c-1.4-0.5-2.9-1-4.4-1.5c-1.5-0.6-2.9-1.2-4.3-1.9c-1.4-0.7-2.7-1.5-4-2.5
		c-1.2-0.9-2.3-2-3.2-3.1s-1.6-2.5-2.2-3.9c-0.5-1.4-0.8-3-0.8-4.8c0-2.6,0.6-4.9,1.7-6.8c1.1-2,2.6-3.7,4.5-5
		c1.8-1.4,3.9-2.4,6.2-3.1c2.3-0.7,4.6-1,7-1c2.6,0,5.1,0.4,7.5,1.3s4.5,2.1,6.3,3.6s3.2,3.4,4.3,5.7c1.1,2.2,1.7,4.7,1.7,7.4h-5.1
		c-0.2-2-0.7-3.8-1.5-5.5c-0.8-1.7-1.8-3.1-3.1-4.3s-2.8-2.1-4.5-2.8c-1.7-0.7-3.6-1-5.7-1c-1.7,0-3.4,0.2-5.1,0.7
		c-1.7,0.5-3.2,1.2-4.5,2.1c-1.3,0.9-2.4,2.1-3.3,3.6c-0.8,1.4-1.3,3.1-1.3,5c0,2.1,0.5,3.8,1.5,5.3c1,1.4,2.2,2.7,3.7,3.7
		c1.5,1,3.2,1.8,4.9,2.5s3.5,1.2,5.1,1.7c1.5,0.5,3,1,4.5,1.6c1.5,0.6,3,1.3,4.4,2c1.4,0.8,2.8,1.6,4,2.6c1.2,0.9,2.3,2,3.2,3.2
		c0.9,1.2,1.6,2.6,2.2,4.1c0.5,1.5,0.8,3.1,0.8,4.9c0,2.7-0.6,5.1-1.8,7.1c-1.2,2-2.7,3.7-4.6,5s-4,2.4-6.4,3c-2.4,0.7-4.8,1-7.2,1
		c-2.7,0-5.4-0.4-7.9-1.2s-4.8-2-6.8-3.5c-2-1.5-3.6-3.4-4.9-5.7c-1.2-2.3-1.9-4.8-2-7.7h5.1c0.3,2.2,0.8,4.2,1.8,5.9
		s2.1,3.1,3.5,4.3c1.4,1.1,3.1,2,5,2.6c1.9,0.6,3.9,0.9,6.1,0.9c1.8,0,3.6-0.2,5.3-0.7c1.7-0.5,3.3-1.2,4.7-2.1
		c1.4-0.9,2.5-2.2,3.4-3.6S1451.4,66.8,1451.4,64.7z"/>
	<path class="st1" d="M1521.4,53.1c0,2.1-0.2,4.2-0.6,6.4c-0.3,2.2-0.9,4.3-1.6,6.4c-0.7,2.1-1.6,4-2.7,5.8
		c-1.1,1.8-2.4,3.4-3.9,4.7c-1.5,1.3-3.3,2.4-5.2,3.2s-4.2,1.2-6.7,1.2c-2.4,0-4.6-0.4-6.6-1.2c-2-0.8-3.7-1.8-5.3-3.2
		c-1.5-1.3-2.9-2.9-4-4.7s-2-3.7-2.8-5.8c-0.7-2.1-1.3-4.2-1.6-6.4c-0.4-2.2-0.5-4.3-0.6-6.4V45c0-2.1,0.2-4.2,0.6-6.4
		c0.4-2.2,0.9-4.3,1.6-6.4c0.7-2.1,1.6-4,2.7-5.8c1.1-1.8,2.4-3.4,4-4.8s3.3-2.4,5.2-3.2c2-0.8,4.2-1.2,6.6-1.2s4.7,0.4,6.7,1.2
		c2,0.8,3.7,1.8,5.3,3.2c1.5,1.3,2.9,2.9,4,4.7c1.1,1.8,2,3.7,2.7,5.8s1.3,4.2,1.6,6.4s0.5,4.4,0.6,6.5V53.1z M1516.4,44.9
		c0-1.6-0.2-3.4-0.4-5.1s-0.6-3.5-1.1-5.2s-1.2-3.3-2-4.9c-0.8-1.5-1.8-2.9-3-4.1c-1.2-1.2-2.5-2.1-4.1-2.8c-1.6-0.7-3.3-1-5.3-1
		s-3.7,0.3-5.3,1s-2.9,1.6-4.1,2.8c-1.2,1.2-2.1,2.5-3,4.1c-0.8,1.5-1.5,3.2-2,4.9s-0.9,3.4-1.1,5.2c-0.2,1.8-0.4,3.5-0.4,5.1v8.2
		c0,1.6,0.2,3.3,0.4,5.1c0.2,1.8,0.6,3.5,1.1,5.2c0.5,1.7,1.2,3.3,2,4.9c0.8,1.5,1.8,2.9,3,4.1c1.2,1.2,2.5,2.1,4.1,2.8
		c1.6,0.7,3.3,1,5.3,1c2,0,3.8-0.3,5.3-1c1.5-0.7,2.9-1.6,4.1-2.8c1.2-1.2,2.1-2.5,3-4.1c0.8-1.5,1.5-3.2,2-4.9
		c0.5-1.7,0.8-3.5,1.1-5.2s0.3-3.5,0.4-5.1V44.9z"/>
	<path class="st1" d="M1585.1,79.9h-5.1l-28.4-52.2l0,52.2h-5.1V18.1h5.1l28.4,52.1l0-52.1h5.1V79.9z"/>
	<path class="st1" d="M1651.5,72.6c-1.2,1.4-2.6,2.7-4,3.7c-1.5,1-3,1.9-4.7,2.6c-1.7,0.7-3.4,1.1-5.2,1.4c-1.8,0.3-3.7,0.4-5.5,0.4
		c-2.5,0-4.7-0.4-6.8-1.2s-3.9-1.8-5.5-3.1c-1.6-1.3-3.1-2.9-4.3-4.6c-1.2-1.8-2.2-3.7-3-5.7c-0.8-2-1.4-4.2-1.8-6.4
		c-0.4-2.2-0.7-4.4-0.7-6.6v-8.7c0-2.2,0.2-4.3,0.6-6.5c0.4-2.2,1-4.3,1.7-6.3c0.8-2,1.7-3.9,2.9-5.6c1.2-1.7,2.5-3.3,4.1-4.6
		c1.6-1.3,3.4-2.3,5.4-3.1c2-0.8,4.2-1.1,6.7-1.1c2.7,0,5.3,0.4,7.6,1.3c2.3,0.9,4.4,2.1,6.1,3.7c1.8,1.6,3.2,3.5,4.3,5.8
		c1.1,2.2,1.8,4.7,2.1,7.4h-5c-0.4-2-1-3.8-1.8-5.5c-0.8-1.7-1.8-3.2-3.1-4.4c-1.2-1.2-2.7-2.2-4.4-2.9c-1.7-0.7-3.6-1-5.8-1
		c-2,0-3.8,0.3-5.4,1c-1.6,0.7-3,1.6-4.2,2.7c-1.2,1.1-2.2,2.4-3.1,3.9c-0.9,1.5-1.6,3.1-2.1,4.8c-0.6,1.7-1,3.4-1.2,5.2
		c-0.3,1.8-0.4,3.5-0.4,5.2v8.8c0,1.7,0.2,3.5,0.5,5.3c0.3,1.8,0.7,3.6,1.3,5.3c0.6,1.7,1.3,3.3,2.3,4.9c0.9,1.5,2,2.9,3.2,4
		c1.3,1.1,2.7,2.1,4.3,2.7c1.6,0.7,3.4,1,5.5,1c1.3,0,2.6,0,4-0.2c1.4-0.2,2.7-0.4,4-0.8c1.3-0.4,2.5-1,3.6-1.7
		c1.1-0.7,2.1-1.6,2.9-2.7l0-16h-14.7v-4.4h19.5L1651.5,72.6z"/>
	<path class="st1" d="M1712.1,64.7c0-1.4-0.2-2.7-0.7-3.9c-0.4-1.1-1-2.2-1.8-3.1c-0.8-0.9-1.7-1.7-2.7-2.4s-2.1-1.3-3.3-1.8
		c-1.2-0.5-2.4-1-3.6-1.4c-1.2-0.4-2.4-0.8-3.5-1.2c-1.4-0.5-2.9-1-4.4-1.5c-1.5-0.6-2.9-1.2-4.3-1.9c-1.4-0.7-2.7-1.5-4-2.5
		c-1.2-0.9-2.3-2-3.2-3.1c-0.9-1.2-1.6-2.5-2.2-3.9s-0.8-3-0.8-4.8c0-2.6,0.6-4.9,1.7-6.8c1.1-2,2.6-3.7,4.5-5
		c1.8-1.4,3.9-2.4,6.2-3.1c2.3-0.7,4.6-1,7-1c2.6,0,5.1,0.4,7.5,1.3s4.5,2.1,6.3,3.6c1.8,1.6,3.2,3.4,4.3,5.7
		c1.1,2.2,1.7,4.7,1.7,7.4h-5.1c-0.2-2-0.7-3.8-1.5-5.5c-0.8-1.7-1.8-3.1-3.1-4.3c-1.3-1.2-2.8-2.1-4.5-2.8s-3.6-1-5.7-1
		c-1.7,0-3.4,0.2-5.1,0.7c-1.7,0.5-3.2,1.2-4.5,2.1c-1.3,0.9-2.4,2.1-3.3,3.6c-0.8,1.4-1.3,3.1-1.3,5c0,2.1,0.5,3.8,1.5,5.3
		c1,1.4,2.2,2.7,3.7,3.7s3.2,1.8,4.9,2.5c1.8,0.7,3.5,1.2,5.1,1.7c1.5,0.5,3,1,4.5,1.6c1.5,0.6,3,1.3,4.4,2c1.4,0.8,2.8,1.6,4,2.6
		c1.2,0.9,2.3,2,3.2,3.2c0.9,1.2,1.6,2.6,2.2,4.1c0.5,1.5,0.8,3.1,0.8,4.9c0,2.7-0.6,5.1-1.8,7.1c-1.2,2-2.7,3.7-4.6,5s-4,2.4-6.4,3
		c-2.4,0.7-4.8,1-7.2,1c-2.7,0-5.4-0.4-7.9-1.2s-4.8-2-6.8-3.5s-3.6-3.4-4.9-5.7c-1.2-2.3-1.9-4.8-2-7.7h5.1
		c0.3,2.2,0.8,4.2,1.8,5.9c0.9,1.7,2.1,3.1,3.5,4.3c1.4,1.1,3.1,2,5,2.6c1.9,0.6,3.9,0.9,6.1,0.9c1.8,0,3.6-0.2,5.3-0.7
		s3.3-1.2,4.7-2.1s2.5-2.2,3.4-3.6S1712.1,66.8,1712.1,64.7z"/>
</g>
</svg>
